<svg xmlns="http://www.w3.org/2000/svg" viewBox="0 0 48 48" width="48" height="48">
  <rect width="48" height="48" fill="#fff"/>
  <ellipse cx="24" cy="28" rx="12" ry="10" fill="#fbbf24" stroke="#222" stroke-width="2"/>
  <ellipse cx="18" cy="26" rx="2.5" ry="3.5" fill="#fff"/>
  <ellipse cx="30" cy="26" rx="2.5" ry="3.5" fill="#fff"/>
  <ellipse cx="18" cy="26" rx="1.2" ry="1.5" fill="#222"/>
  <ellipse cx="30" cy="26" rx="1.2" ry="1.5" fill="#222"/>
  <ellipse cx="24" cy="32" rx="4" ry="2" fill="#222"/>
  <polygon points="10,18 16,10 18,20" fill="#fbbf24" stroke="#222" stroke-width="2"/>
  <polygon points="38,18 32,10 30,20" fill="#fbbf24" stroke="#222" stroke-width="2"/>
</svg>
<svg xmlns="http://www.w3.org/2000/svg" viewBox="0 0 48 48" width="48" height="48">
  <rect width="48" height="48" fill="#fff"/>
  <ellipse cx="24" cy="28" rx="12" ry="10" fill="#64748b" stroke="#222" stroke-width="2"/>
  <ellipse cx="18" cy="26" rx="2.5" ry="3.5" fill="#fff"/>
  <ellipse cx="30" cy="26" rx="2.5" ry="3.5" fill="#fff"/>
  <ellipse cx="18" cy="26" rx="1.2" ry="1.5" fill="#222"/>
  <ellipse cx="30" cy="26" rx="1.2" ry="1.5" fill="#222"/>
  <ellipse cx="24" cy="32" rx="4" ry="2" fill="#222"/>
  <polygon points="10,18 16,10 18,20" fill="#64748b" stroke="#222" stroke-width="2"/>
  <polygon points="38,18 32,10 30,20" fill="#64748b" stroke="#222" stroke-width="2"/>
</svg>
<svg xmlns="http://www.w3.org/2000/svg" viewBox="0 0 48 48" width="48" height="48">
  <rect width="48" height="48" fill="#fff"/>
  <ellipse cx="24" cy="28" rx="12" ry="10" fill="#f472b6" stroke="#222" stroke-width="2"/>
  <ellipse cx="18" cy="26" rx="2.5" ry="3.5" fill="#fff"/>
  <ellipse cx="30" cy="26" rx="2.5" ry="3.5" fill="#fff"/>
  <ellipse cx="18" cy="26" rx="1.2" ry="1.5" fill="#222"/>
  <ellipse cx="30" cy="26" rx="1.2" ry="1.5" fill="#222"/>
  <ellipse cx="24" cy="32" rx="4" ry="2" fill="#222"/>
  <polygon points="10,18 16,10 18,20" fill="#f472b6" stroke="#222" stroke-width="2"/>
  <polygon points="38,18 32,10 30,20" fill="#f472b6" stroke="#222" stroke-width="2"/>
</svg>
